<svg width="49" height="56" viewBox="0 0 49 56" fill="none" xmlns="http://www.w3.org/2000/svg">
<path fill-rule="evenodd" clip-rule="evenodd" d="M24.4317 0.256928C24.4104 0.277411 24.1975 0.313163 23.9585 0.336253C23.4568 0.384791 22.8121 0.906042 22.5897 1.44306C22.3912 1.92235 22.515 2.50493 22.9669 3.21748C23.3776 3.86486 23.4903 4.78683 23.1589 4.78683C23.0605 4.78683 22.9402 4.85138 22.8916 4.9302C22.8313 5.0274 22.8589 5.03969 22.9772 4.96844C23.1256 4.87894 23.1263 4.89458 22.9818 5.07271C22.857 5.22652 22.6475 5.27493 22.1922 5.2552C21.6513 5.23161 21.5347 5.27208 21.2757 5.57336C21.1061 5.77037 20.9174 5.88048 20.8357 5.82995C20.7405 5.77124 20.7266 5.79668 20.7943 5.90593C20.8679 6.0251 20.8393 6.04868 20.6907 5.9917C20.5642 5.94316 20.4969 5.97072 20.5152 6.0637C20.5374 6.17692 20.0404 6.21441 18.5158 6.21441C17.3998 6.21441 16.4609 6.17257 16.4292 6.1213C16.3092 5.92752 15.1391 6.02386 14.8993 6.24718C14.5181 6.60234 14.3786 7.1108 14.5213 7.62448C14.5904 7.87313 14.6471 8.2268 14.6475 8.41052C14.6478 8.59424 14.7128 8.78442 14.7916 8.83308C14.8821 8.88907 14.9011 8.8671 14.8432 8.77337C14.7767 8.66587 14.8482 8.64625 15.1033 8.70224C15.3455 8.75525 15.4025 8.74221 15.2862 8.66028C15.1614 8.57239 15.2263 8.5287 15.5344 8.49295C16.1199 8.42517 16.4768 8.50151 16.249 8.64576C16.1177 8.72881 16.1411 8.75587 16.3453 8.75736C16.5492 8.75872 16.6358 8.66128 16.7018 8.35577C16.7496 8.13382 16.8908 7.75085 17.0154 7.50457C17.2143 7.11167 17.3133 7.04712 17.8245 6.97698C18.846 6.83695 22.0583 6.88512 22.4109 7.04575C22.5903 7.12743 22.8434 7.40277 22.9734 7.65763C23.1967 8.09534 23.21 8.48451 23.2158 14.7501C23.2192 18.3963 23.1861 21.4726 23.1424 21.5866C23.0987 21.7004 23.0156 21.7936 22.9575 21.7936C22.6629 21.7936 21.8183 22.7907 21.5471 23.4585C21.3833 23.8622 21.1479 24.249 21.0243 24.3182C20.9005 24.3875 20.2205 24.4499 19.5129 24.457C18.4013 24.4683 18.2092 24.5011 18.0989 24.6983C18.0045 24.8668 18.0156 24.9544 18.1407 25.0328C18.2339 25.0911 21.0196 25.1264 24.3309 25.1111C30.327 25.0834 30.3517 25.0823 30.3886 24.8247C30.4315 24.5237 30.4795 24.5345 28.8263 24.4718C28.1217 24.4451 27.4725 24.3594 27.3778 24.2809C27.2833 24.2025 27.1056 23.8592 26.9829 23.5178C26.8236 23.0751 26.545 22.6946 26.0109 22.1903L25.262 21.4833L25.2405 15.0472C25.2176 8.20147 25.2426 7.86171 25.8118 7.25008C26.0752 6.9673 26.1488 6.95824 28.4789 6.92149L30.8752 6.88375L31.2507 7.19969C31.5537 7.45466 31.6426 7.64745 31.7116 8.19949C31.802 8.9237 31.8546 8.9957 32.0759 8.69752C32.2072 8.52038 33.2209 8.40667 33.6265 8.52361C33.7476 8.55849 33.8415 8.36223 33.9462 7.85525C34.0751 7.23134 34.0663 7.07468 33.8793 6.65696C33.5829 5.99493 33.0765 5.83827 32.018 6.08096C31.6288 6.17021 30.5911 6.22967 29.5588 6.22185L27.773 6.2082L27.3733 5.74579C27.0106 5.3262 26.9157 5.28337 26.3488 5.28337C25.424 5.28337 25.1378 5.00618 25.1378 4.11052C25.1378 3.6249 25.1946 3.37638 25.324 3.29457C25.4264 3.22977 25.4608 3.17602 25.4004 3.1749C25.3399 3.17391 25.4266 3.06603 25.5928 2.93532C25.81 2.76438 25.9032 2.55719 25.9245 2.19757C25.9698 1.42916 25.6865 0.899463 25.0354 0.535616C24.7247 0.361948 24.453 0.23657 24.4317 0.256928ZM23.4625 1.17157C22.9293 1.72088 22.8642 1.99646 23.1411 2.53187C23.509 3.24355 24.5329 3.36893 25.1605 2.77928C25.4045 2.55012 25.4531 2.39271 25.4309 1.90535C25.4128 1.50923 25.3491 1.31098 25.2397 1.31098C25.1496 1.31098 25.0758 1.22384 25.0758 1.11745C25.0758 1.01106 25.0246 0.955448 24.9622 0.994054C24.8997 1.03266 24.83 1.00932 24.807 0.942165C24.7842 0.875007 24.584 0.783892 24.3625 0.739699C24.0054 0.668569 23.9027 0.717852 23.4625 1.17157ZM25.5044 14.0351C25.5044 16.5613 25.5209 17.5771 25.5411 16.2925C25.5614 15.0078 25.5613 12.9409 25.541 11.6994C25.5208 10.4578 25.5043 11.5089 25.5044 14.0351ZM29.7619 16.2178C29.5716 16.4263 29.0186 16.5337 28.4726 16.4683C28.2521 16.4418 28.1589 16.8282 28.3668 16.908C28.4677 16.9466 28.5196 17.0279 28.4821 17.0883C28.3912 17.2354 29.0706 18.2102 29.5381 18.6036C30.0471 19.0318 31.0768 19.5002 31.9167 19.6855C33.3066 19.9922 35.2477 19.3556 36.3354 18.2365C36.6287 17.9346 36.8688 17.6379 36.8688 17.5771C36.8688 17.5162 36.9635 17.3719 37.0792 17.2562C37.4796 16.8558 37.375 16.6095 36.7658 16.5182C36.4598 16.4722 36.1311 16.3564 36.0355 16.2608C35.8864 16.1116 35.8172 16.116 35.5503 16.2908C35.2939 16.4588 34.8529 16.4974 33.0436 16.5099C30.4534 16.5277 29.9639 16.4731 30.0157 16.1716C30.0602 15.9121 30.0371 15.9164 29.7619 16.2178ZM12.3676 16.3574C12.4306 16.4593 12.1038 16.4984 11.5137 16.4596C11.2667 16.4432 11.1724 16.4952 11.1724 16.6475C11.1724 16.9406 11.7698 17.8852 12.2896 18.4136C12.832 18.9652 14.0065 19.5242 15.0184 19.7124C15.6797 19.8353 15.9181 19.8235 16.678 19.6296C17.8369 19.334 18.3972 19.0413 19.1466 18.3404C19.6976 17.8249 20.2344 17.0279 20.2344 16.7251C20.2344 16.663 19.9708 16.5825 19.6488 16.5461C19.3267 16.5099 19.0428 16.4187 19.0177 16.3438C18.9614 16.1744 18.5321 16.1633 18.4757 16.3297C18.4116 16.5193 13.2429 16.556 13.0168 16.3685C12.8213 16.2062 12.2684 16.1968 12.3676 16.3574ZM18.4268 45.2556C18.4268 47.1332 18.4441 47.9014 18.4652 46.9625C18.4862 46.0238 18.4862 44.4876 18.4652 43.5487C18.4441 42.61 18.4268 43.378 18.4268 45.2556ZM42.2613 45.3177C42.2613 47.2294 42.2786 47.9941 42.2996 47.017C42.3205 46.04 42.3205 44.4759 42.2994 43.5412C42.2785 42.6065 42.2612 43.406 42.2613 45.3177ZM6.7501 42.266C6.12941 42.5478 5.83446 43.0737 5.83446 43.8982C5.83446 44.3948 5.89057 44.536 6.18763 44.7859C6.3819 44.9494 6.81477 45.1808 7.14969 45.3003C8.57417 45.8085 8.88973 46.016 8.8284 46.4039C8.82034 46.455 8.88029 46.483 8.9616 46.466C9.04279 46.4488 9.12968 46.5466 9.15439 46.6832C9.18741 46.8644 9.16891 46.8868 9.08586 46.7657C8.99797 46.6375 8.95701 46.6586 8.90462 46.8591C8.86167 47.0233 8.88513 47.0883 8.96868 47.0366C9.04614 46.9887 9.06389 47.0141 9.01175 47.0984C8.96309 47.1773 8.84603 47.2418 8.75169 47.2418C8.65734 47.2418 8.54599 47.2971 8.50428 47.3646C8.45996 47.4362 8.52141 47.4578 8.65213 47.4165C8.85199 47.3533 8.85013 47.3667 8.63487 47.542C8.50229 47.65 8.3244 47.7384 8.23949 47.7384C7.94467 47.7384 7.47071 47.5039 7.21846 47.2331C7.05075 47.053 6.80521 46.9559 6.49276 46.9462C6.08671 46.9336 6.01495 46.9722 5.97945 47.2229C5.92048 47.6392 6.39059 48.082 7.12213 48.2992C7.86522 48.5199 8.27264 48.5292 9.01399 48.3425C10.1292 48.0617 10.6901 46.9956 10.2436 46.0054C10.0153 45.499 9.67638 45.2904 8.55406 44.9649C7.72569 44.7246 7.09172 44.2834 7.34471 44.123C7.44774 44.0577 7.45681 44.0173 7.36842 44.0161C7.29034 44.0151 7.19327 43.9276 7.15255 43.8216C7.10625 43.7008 7.12946 43.6603 7.21474 43.713C7.30387 43.7681 7.32398 43.713 7.27333 43.5531C7.21772 43.378 7.27532 43.2674 7.47717 43.1613C7.70459 43.0419 7.71092 43.0261 7.51031 43.0797C7.26564 43.1449 7.26551 43.1432 7.50299 42.9593C7.84958 42.6912 8.20908 42.7287 8.68962 43.0832C9.21435 43.4704 10.181 43.5308 10.1765 43.1763C10.1727 42.8714 9.81542 42.4628 9.34754 42.2276C8.78843 41.9467 7.40815 41.9671 6.7501 42.266ZM12.0724 42.1074C11.9871 42.1434 11.9172 42.2278 11.9172 42.2949C11.9172 42.3621 12.2803 43.1484 12.7241 44.0423C13.5536 45.7131 13.6434 45.9556 13.3758 45.8017C13.2857 45.7498 13.264 45.7597 13.324 45.8254C13.381 45.8875 13.4886 45.9384 13.5634 45.9384C13.7631 45.9384 13.9201 46.5736 13.945 47.4814C13.9662 48.2555 13.978 48.2826 14.3385 48.3808C14.954 48.5484 15.0206 48.4558 15.0206 47.4325C15.0206 46.5316 15.0463 46.4501 15.7366 45.163C16.7978 43.1846 17.1781 42.2587 16.9811 42.1337C16.7872 42.0107 16.4792 42.0001 16.2007 42.107C16.0076 42.1811 15.5394 43.0708 15.3276 43.766C15.1901 44.2175 14.8866 44.6435 14.7588 44.5644C14.698 44.5269 14.6482 44.5665 14.6482 44.6524C14.6482 44.7679 14.6118 44.7723 14.5089 44.6694C14.4323 44.5928 14.3015 44.5564 14.2182 44.5883C14.124 44.6245 13.9177 44.2811 13.6716 43.6786C13.0933 42.2617 12.9792 42.0936 12.5778 42.066C12.3852 42.0527 12.1578 42.0714 12.0724 42.1074ZM18.8779 42.1466C18.7817 42.2061 18.7503 43.1619 18.7735 45.3264L18.8068 48.4211H19.2413H19.6758L19.7067 47.2418C19.7436 45.8321 19.8257 45.3706 19.9927 45.6345C20.0766 45.7672 20.108 45.7167 20.1122 45.4418C20.1176 45.1071 20.1347 45.0913 20.2817 45.2847C20.3716 45.4031 20.4791 45.466 20.5207 45.4246C20.5622 45.383 20.6902 45.5655 20.8052 45.8299C20.92 46.0944 21.1122 46.5342 21.2321 46.8073C21.3521 47.0804 21.5212 47.4994 21.608 47.7384C21.8248 48.3358 21.9574 48.4832 22.2786 48.4832C22.6725 48.4832 22.8667 48.203 23.3979 46.8694C23.8907 45.6321 24.2053 45.0555 24.2087 45.3831C24.2104 45.5424 24.2253 45.5426 24.3246 45.3857C24.3874 45.2865 24.4111 45.1609 24.3775 45.1064C24.3438 45.0519 24.3755 45.0073 24.4477 45.0073C24.5263 45.0073 24.5874 45.3694 24.5994 45.9073L24.6197 46.8073L24.6942 46.1246L24.7686 45.4418L24.8487 46.1246C24.8928 46.5001 24.933 47.1324 24.9382 47.5297C24.9434 47.927 24.9723 48.2921 25.0026 48.3412C25.0484 48.4153 25.3376 48.4248 25.8516 48.3691C25.9029 48.3636 25.9447 46.9367 25.9447 45.1983V42.0374L25.2643 42.0455L24.5838 42.0536L24.0426 43.1891C23.7448 43.8136 23.4241 44.5906 23.3299 44.9157C23.2357 45.2408 23.0315 45.6598 22.8759 45.8468C22.6533 46.1144 22.6084 46.1339 22.6646 45.9384C22.7293 45.7129 22.723 45.7102 22.5956 45.9083C22.5185 46.0284 22.4866 46.1771 22.5249 46.2388C22.613 46.3814 21.9878 46.3185 21.8589 46.1717C21.806 46.1117 21.6327 45.7273 21.4735 45.3177C21.1992 44.6108 20.9759 44.0901 20.3693 42.7418C20.2235 42.4176 20.0636 42.1452 20.0141 42.1368C19.6307 42.0712 18.9909 42.0768 18.8779 42.1466ZM29.4936 42.3074C29.3939 42.4609 29.1668 43.0336 28.9889 43.5798C28.8109 44.126 28.6155 44.6846 28.5546 44.8211C28.4937 44.9577 28.3757 45.2929 28.2923 45.566C28.209 45.8391 28.0477 46.286 27.9341 46.5591C27.5734 47.4258 27.3984 48.0861 27.4757 48.2878C27.6094 48.636 28.2607 48.5307 28.5715 48.1105C28.7743 47.8362 28.8756 47.7788 28.9557 47.8933C29.0251 47.9923 29.0369 47.9503 28.9882 47.777C28.9337 47.5823 28.9819 47.4679 29.1581 47.3735C29.4338 47.2259 31.0144 47.1943 31.3655 47.3292C31.566 47.4063 31.5562 47.4275 31.2826 47.5095C31.0202 47.5879 31.0394 47.5983 31.4068 47.5772C31.7954 47.5548 31.8652 47.6012 32.0687 48.0177C32.274 48.4376 32.3437 48.4832 32.7824 48.4832C33.05 48.4832 33.2688 48.442 33.2688 48.3916C33.2688 48.2693 32.4346 45.6115 32.1383 44.7901C31.8671 44.0379 31.439 42.8648 31.2551 42.3694C31.1366 42.0503 31.0809 42.028 30.4015 42.028C29.784 42.028 29.6472 42.0701 29.4936 42.3074ZM34.9215 42.1532C34.6529 42.2613 34.6498 42.2961 34.6436 45.2521L34.6373 48.2416L34.9462 48.3823C35.1783 48.4882 35.335 48.4867 35.5769 48.3763C35.8943 48.2318 35.8982 48.2143 35.8444 47.1481C35.8145 46.5532 35.8232 45.9539 35.8639 45.8162C35.9045 45.6785 35.9686 46.2084 36.0062 46.9935L36.0744 48.4211L36.1137 46.6832C36.1351 45.7273 36.1785 45.0437 36.2099 45.164C36.2413 45.2843 36.3281 45.345 36.4028 45.2988C36.4906 45.2446 36.5097 45.2901 36.4568 45.4279C36.4089 45.553 36.4251 45.61 36.4963 45.566C36.606 45.4982 37.0483 46.3539 37.4909 47.4901C37.845 48.3996 38.2348 48.695 38.6758 48.3882C38.8194 48.2882 39.3516 47.1939 39.3516 46.9984C39.3516 46.9313 39.485 46.5748 39.648 46.2061C39.9663 45.4865 40.2338 45.1911 40.1434 45.6589C40.0904 45.9333 40.0918 45.933 40.2173 45.6476C40.2875 45.4876 40.3082 45.2921 40.263 45.2132C40.2177 45.1341 40.2265 45.1109 40.2823 45.1614C40.3382 45.212 40.4524 45.1967 40.5361 45.1271C40.7416 44.9566 40.8377 45.5035 40.8532 46.932C40.8598 47.5458 40.9177 48.1459 40.9817 48.2656C41.1175 48.5192 41.7687 48.5626 41.9191 48.328C41.9737 48.2427 42.0247 46.916 42.0323 45.3797C42.0483 42.1704 42.0165 42.037 41.2453 42.0791C40.596 42.1144 40.5318 42.1709 40.0928 43.0907C39.8816 43.5332 39.6602 43.8654 39.6008 43.8287C39.5415 43.7919 39.4525 43.8273 39.4031 43.9072C39.347 43.998 39.3669 44.0193 39.4564 43.964C39.6275 43.8583 39.6578 44.3983 39.491 44.5791C39.4311 44.6439 39.2884 44.986 39.1738 45.3392C39.0592 45.6923 38.8792 46.053 38.7736 46.1406C38.5404 46.3341 38.2343 46.3915 38.2343 46.2416C38.2343 46.1816 38.1613 46.1603 38.0721 46.1946C37.9698 46.2338 37.8122 46.0374 37.6457 45.6632C36.9091 44.0079 36.71 43.5338 36.536 43.0211C36.4317 42.7139 36.2598 42.3647 36.1539 42.2453C35.9485 42.0135 35.3746 41.9706 34.9215 42.1532ZM26.2465 45.3177C26.2466 46.9563 26.2642 47.6095 26.2857 46.7692C26.3073 45.9289 26.3072 44.5882 26.2856 43.7899C26.264 42.9916 26.2465 43.6791 26.2465 45.3177ZM30.074 44.1797C29.7383 44.5117 29.3731 45.6704 29.4756 46.0783C29.5426 46.3457 29.615 46.3727 30.2608 46.371C31.244 46.3684 31.3291 46.2929 31.2227 45.5193C31.1746 45.1696 31.0846 44.8522 31.0227 44.8139C30.9609 44.7757 30.9102 44.642 30.9102 44.5167C30.9102 44.3915 30.8327 44.2594 30.738 44.223C30.6159 44.1761 30.5809 44.2353 30.6174 44.427C30.6649 44.676 30.659 44.6744 30.541 44.4063C30.4708 44.2463 30.4446 44.0648 30.4828 44.0028C30.6134 43.7914 30.3523 43.9044 30.074 44.1797ZM20.0287 47.1797C20.0291 47.7259 20.0509 47.934 20.0771 47.642C20.1034 47.3501 20.1031 46.9032 20.0764 46.6489C20.0497 46.3947 20.0282 46.6335 20.0287 47.1797ZM13.6992 47.5522C13.6988 48.1666 13.7198 48.4337 13.7459 48.1455C13.7718 47.8574 13.7722 47.3547 13.7465 47.0283C13.7209 46.7019 13.6996 46.9377 13.6992 47.5522ZM15.313 47.5522C15.3126 48.1666 15.3336 48.4337 15.3596 48.1455C15.3856 47.8574 15.386 47.3547 15.3603 47.0283C15.3347 46.7019 15.3133 46.9377 15.313 47.5522ZM27.1373 52.9002C27.0176 53.2121 27.0499 53.8211 27.1861 53.8211C27.2544 53.8211 27.3102 53.5697 27.3102 53.2625C27.3102 52.6749 27.2623 52.5745 27.1373 52.9002ZM28.2689 54.911C28.313 55.1876 28.2964 55.2149 28.1772 55.0625C28.0534 54.9041 28.0426 54.9103 28.1054 55.1037C28.146 55.2287 28.1792 55.3544 28.1792 55.383C28.1792 55.4115 28.235 55.4349 28.3033 55.4349C28.4544 55.4349 28.4703 54.7311 28.3212 54.639C28.2629 54.6029 28.2393 54.7253 28.2689 54.911Z" fill="#154071"/>
<path fill-rule="evenodd" clip-rule="evenodd" d="M23.6423 0.079036C23.602 0.144332 23.5177 0.166057 23.455 0.127326C23.3041 0.0340992 22.3074 1.02596 22.4006 1.17679C22.4403 1.24109 22.4161 1.32885 22.3467 1.3718C22.1743 1.47844 22.1877 2.33908 22.3684 2.76376C22.4498 2.95468 22.6312 3.24119 22.7719 3.40033C22.9478 3.59932 23.0275 3.86076 23.0275 4.23826C23.0275 4.59429 23.082 4.78682 23.1827 4.78682C23.49 4.78682 23.3593 3.83618 22.9669 3.21748C22.515 2.50493 22.3912 1.92235 22.5897 1.44306C22.8122 0.905792 23.4568 0.384787 23.9585 0.336498C24.1975 0.313656 24.4209 0.288704 24.4551 0.281256C24.4892 0.273807 24.7588 0.393973 25.0542 0.5484C25.6777 0.874385 25.9698 1.42791 25.9245 2.19757C25.9032 2.55719 25.81 2.76438 25.5928 2.93531C25.4266 3.06603 25.3399 3.17391 25.4004 3.1749C25.4608 3.17602 25.4264 3.22977 25.324 3.29457C25.1946 3.37638 25.1378 3.6249 25.1378 4.11052C25.1378 5.00618 25.424 5.28337 26.3488 5.28337C26.9157 5.28337 27.0106 5.3262 27.3733 5.74579L27.773 6.2082L29.5589 6.22185C30.5911 6.22967 31.6288 6.17021 32.018 6.08095C33.0765 5.83827 33.5829 5.99493 33.8793 6.65695C34.0663 7.07468 34.0751 7.23134 33.9462 7.85525C33.8415 8.36223 33.7476 8.55849 33.6265 8.52361C33.3201 8.43522 32.2269 8.51008 32.1096 8.62739C32.0401 8.6969 32.2927 8.73278 32.7548 8.719C33.3265 8.70199 33.5346 8.74246 33.5974 8.88299C33.6432 8.98565 33.6755 9.10048 33.669 9.13821C33.6627 9.17595 33.7952 9.67871 33.9634 10.2554C34.2681 11.3008 34.3115 11.4679 34.4607 12.173C34.504 12.3778 34.5731 12.6013 34.6143 12.6695C34.6556 12.7378 34.7055 12.9054 34.7253 13.042C34.7452 13.1785 34.7961 13.374 34.8384 13.4764C34.8807 13.5789 34.933 13.7961 34.9545 13.9593C34.976 14.1225 35.0328 14.3459 35.081 14.4559C35.2411 14.822 35.3548 15.2799 35.3696 15.6178C35.3749 15.7372 35.4675 15.8351 35.5757 15.8351C35.6838 15.8351 35.749 15.9049 35.7207 15.9902C35.6817 16.1072 34.9592 16.1536 32.793 16.1787C30.1558 16.2093 29.6218 16.1563 30.0288 15.9048C30.1257 15.845 30.3346 15.1364 30.475 14.3915C30.4991 14.2637 30.5302 14.1592 30.5441 14.1592C30.558 14.1592 30.5876 14.0475 30.6095 13.9109C30.6623 13.5848 30.7305 13.3326 30.8279 13.104C30.8716 13.0016 30.9235 12.8061 30.9434 12.6695C30.9632 12.533 31.0124 12.3654 31.0526 12.2971C31.1209 12.1812 31.3925 11.1099 31.4501 10.7294C31.4642 10.6358 31.5217 10.4857 31.5778 10.3957C31.6339 10.3059 31.6468 10.1993 31.6065 10.1589C31.5662 10.1185 31.5953 10.0105 31.6713 9.91891C31.7474 9.8273 31.768 9.75232 31.7171 9.75232C31.6662 9.75232 31.6804 9.68255 31.7485 9.59715C31.8777 9.43502 31.877 9.39083 31.7217 8.23052C31.6441 7.6503 31.5553 7.45603 31.2507 7.19968L30.8752 6.88375L28.4789 6.92149C26.1488 6.95824 26.0752 6.9673 25.8118 7.25008C25.2426 7.86171 25.2176 8.20147 25.2405 15.0472L25.262 21.4833L26.0109 22.1903C26.545 22.6946 26.8236 23.0751 26.9829 23.5178C27.1056 23.8592 27.2833 24.2025 27.3778 24.2809C27.4725 24.3594 28.1217 24.4451 28.8263 24.4718C30.4795 24.5345 30.4315 24.5237 30.3886 24.8247C30.3517 25.0823 30.327 25.0834 24.3309 25.1111C21.0196 25.1264 18.2339 25.0911 18.1407 25.0328C18.0156 24.9544 18.0045 24.8668 18.0989 24.6983C18.2092 24.5011 18.4013 24.4683 19.5129 24.457C20.2205 24.4499 20.9005 24.3875 21.0243 24.3182C21.1479 24.249 21.3833 23.8622 21.5471 23.4585C21.8183 22.7907 22.6629 21.7936 22.9575 21.7936C23.0156 21.7936 23.0987 21.7004 23.1424 21.5866C23.1861 21.4726 23.2192 18.3963 23.2158 14.7501C23.21 8.48451 23.1967 8.09533 22.9734 7.65763C22.6266 6.97797 22.3368 6.89716 20.2459 6.89716C17.6907 6.89716 17.2913 6.96345 17.0515 7.42735C16.704 8.09931 16.483 9.01122 16.6258 9.18327C16.6976 9.26992 16.7209 9.37606 16.6777 9.41938C16.6344 9.46258 16.6623 9.57431 16.7398 9.66766C16.8171 9.76088 16.8451 9.87261 16.8019 9.91593C16.7585 9.95913 16.7823 10.0658 16.8544 10.1528C16.9266 10.2398 16.9857 10.3536 16.9857 10.4058C16.9855 10.7392 17.1717 11.5008 17.2679 11.5603C17.3313 11.5995 17.3554 11.6767 17.3214 11.7318C17.2872 11.7869 17.3471 12.1276 17.4543 12.4887C17.5961 12.9659 17.6798 13.0973 17.7607 12.9695C17.8316 12.8575 17.8727 12.8473 17.8739 12.9415C17.8749 13.0228 17.8224 13.1224 17.7571 13.1627C17.6432 13.2331 17.6557 13.3421 17.8323 13.8178C17.8768 13.9372 17.9336 14.1468 17.9586 14.2833C17.9837 14.4199 18.097 14.8388 18.2105 15.2144C18.3238 15.5899 18.4206 15.9522 18.4255 16.0195C18.4304 16.0869 18.5461 16.1631 18.6827 16.1891C18.8192 16.215 18.966 16.2916 19.0087 16.3595C19.0515 16.4273 19.3447 16.5119 19.6604 16.5475C19.9761 16.5831 20.2344 16.6631 20.2344 16.7251C20.2344 17.0279 19.6976 17.8249 19.1466 18.3404C18.3972 19.0413 17.8369 19.334 16.678 19.6296C15.9181 19.8235 15.6797 19.8353 15.0184 19.7124C13.4427 19.4193 12.2718 18.6517 11.5137 17.4149C11.0203 16.6098 11.0543 16.4624 11.7304 16.476C12.0372 16.4822 12.3743 16.4159 12.4794 16.3286C12.6312 16.2026 12.7287 16.2011 12.9541 16.3219C13.3965 16.5586 18.4965 16.5676 18.4965 16.3316C18.4965 16.2527 17.5003 16.2075 15.7561 16.2075H13.0157L13.0497 15.804C13.0683 15.5821 13.1304 15.3366 13.1875 15.2584C13.2446 15.1804 13.2806 15.0686 13.2673 15.0102C13.2541 14.9518 13.2762 14.8202 13.3166 14.7178C13.4349 14.4173 13.799 13.0719 13.8362 12.7975C13.8551 12.6589 13.9052 12.4616 13.9476 12.3592C13.9899 12.2568 14.0448 12.0613 14.0695 11.9247C14.0942 11.7882 14.1537 11.5865 14.2017 11.4766C14.2497 11.3666 14.3066 11.1432 14.3281 10.98C14.3495 10.8168 14.4054 10.5934 14.4522 10.4835C14.499 10.3735 14.5518 10.1477 14.5695 9.98172C14.5873 9.81563 14.6434 9.61229 14.6944 9.52987C14.7453 9.44732 14.7548 9.32789 14.7156 9.26434C14.6763 9.20078 14.6999 9.11438 14.7678 9.07242C14.8422 9.02637 14.8486 8.91179 14.7836 8.78455C14.7244 8.66823 14.6162 8.24914 14.5432 7.85327C14.3188 6.6356 14.7169 6.0282 15.7396 6.0282C16.0724 6.0282 16.382 6.06544 16.4275 6.111C16.473 6.15655 17.377 6.21304 18.4364 6.23662C20.5236 6.28317 20.6925 6.24184 21.3061 5.53513C21.531 5.27593 21.6689 5.23235 22.1922 5.2552C22.5888 5.27245 22.8618 5.22205 22.9505 5.11517C23.0645 4.97775 22.9325 4.95168 22.2037 4.96757C21.4423 4.9842 21.286 5.0269 21.0867 5.27307C20.9594 5.43035 20.8551 5.63679 20.8551 5.73163C20.8551 5.82647 20.8132 5.9053 20.762 5.90679C19.0097 5.95769 16.6155 5.895 16.347 5.79109C15.5492 5.48224 14.6753 5.74814 14.3368 6.40272C14.2315 6.60643 14.1815 6.77302 14.2258 6.77302C14.27 6.77302 14.2387 6.85433 14.1561 6.95377C14.0737 7.0532 14.0428 7.19385 14.0875 7.26622C14.2924 7.59779 14.3945 8.60579 14.2512 8.88336C14.135 9.10842 13.1625 12.6662 13.0976 13.104C13.0723 13.2747 13.0391 13.4423 13.0241 13.4764C13.009 13.5106 12.9858 13.5944 12.9725 13.6626C12.9592 13.7309 12.9125 13.8706 12.8687 13.973C12.8249 14.0754 12.7646 14.2989 12.7348 14.4695C12.7048 14.6402 12.6692 14.7799 12.6554 14.7799C12.6417 14.7799 12.6122 14.8916 12.5903 15.0282C12.5354 15.3674 12.4681 15.6099 12.3594 15.8601C12.309 15.9763 12.2953 16.116 12.3292 16.1705C12.3631 16.225 12.005 16.251 11.5334 16.2283C10.5658 16.1818 10.5415 16.2126 10.9087 17.0144C11.7969 18.9539 13.7256 20.1031 15.9231 20.0022C18.0031 19.9068 19.4659 18.9629 20.4031 17.1116C20.5833 16.7554 20.7309 16.4063 20.7309 16.3357C20.7309 16.2607 20.398 16.2075 19.9289 16.2075H19.1267L18.991 15.6799C18.738 14.6955 18.4852 13.7875 18.4122 13.6006C18.3722 13.4982 18.3232 13.292 18.3031 13.1423C18.2648 12.8567 17.5415 10.1975 17.4147 9.87646C17.3743 9.77404 17.3303 9.63439 17.317 9.56611C17.3038 9.49784 17.2779 9.38611 17.2597 9.31784C17.2414 9.24956 17.2174 9.13784 17.2062 9.06956C17.195 9.00129 17.1437 8.77536 17.0921 8.56743C17.0298 8.3163 17.0628 8.035 17.1904 7.7295L17.3826 7.26957H19.9226H22.4627L22.714 7.82136C22.9562 8.35304 22.9654 8.61075 22.9654 14.8984C22.9654 21.4186 22.9652 21.4238 22.6994 21.6397C21.5752 22.5526 21.2583 22.9716 21.0566 23.8109L20.9745 24.1523H19.3631H17.7516V24.7729V25.3936H24.2068H30.6619V24.7729V24.1523H29.0619H27.462L27.3832 23.7321C27.274 23.1502 26.7344 22.389 26.0574 21.8622L25.4874 21.4185L25.4767 14.8621C25.4678 9.42559 25.496 8.2541 25.6413 8.00471C25.7378 7.83936 25.8511 7.60946 25.8933 7.49376C25.9956 7.21346 26.1324 7.20167 28.823 7.24363L31.1426 7.27988L31.2873 7.71845C31.4388 8.17726 31.3647 9.03778 31.1229 9.62818C31.0291 9.85709 30.7591 10.8635 30.7233 11.1178C30.7089 11.2202 30.6387 11.4472 30.5673 11.6221C30.496 11.797 30.4204 12.1042 30.3993 12.3048C30.3782 12.5054 30.3121 12.737 30.2525 12.8193C30.1928 12.9017 30.1777 13.0235 30.2188 13.09C30.26 13.1565 30.2416 13.2431 30.1782 13.2823C30.0846 13.3403 29.8809 14.1643 29.9011 14.4034C29.9039 14.4373 29.8244 14.6613 29.7241 14.9012C29.6239 15.141 29.5411 15.3652 29.5404 15.3993C29.5395 15.4335 29.5056 15.627 29.4651 15.8293C29.3931 16.1897 29.3743 16.1979 28.5368 16.2334L27.6821 16.2695L28.0521 17.0507C28.686 18.3897 29.9324 19.4431 31.3968 19.8781C32.0689 20.0777 33.8641 20.0334 34.4953 19.8017C35.7766 19.3315 36.9579 18.2609 37.5283 17.0531C37.7118 16.6647 37.8619 16.3156 37.8619 16.2772C37.8619 16.2389 37.51 16.2075 37.0798 16.2075C36.2939 16.2075 35.9672 16.0646 36.08 15.7704C36.1136 15.6832 36.0836 15.5765 36.0137 15.5333C35.9437 15.4901 35.9158 15.3784 35.9517 15.285C35.9874 15.1916 35.9595 15.0799 35.8896 15.0367C35.8196 14.9935 35.7917 14.8818 35.8275 14.7884C35.8633 14.6951 35.832 14.5814 35.758 14.5356C35.6839 14.4898 35.6531 14.4042 35.6895 14.3454C35.7259 14.2866 35.7013 14.2049 35.6349 14.1638C35.5685 14.1227 35.5434 14.0128 35.5793 13.9195C35.615 13.8261 35.5837 13.7124 35.5097 13.6666C35.4356 13.6208 35.4044 13.5362 35.4401 13.4783C35.4759 13.4205 35.4397 13.2149 35.36 13.0214C35.2802 12.8278 35.2224 12.6324 35.2314 12.5871C35.2483 12.5028 34.9285 11.331 34.7968 10.9937C34.7567 10.8913 34.7127 10.7237 34.6988 10.6213C34.685 10.5189 34.5484 9.98818 34.3955 9.44198C34.1481 8.55886 34.1339 8.37812 34.2684 7.81019C34.4505 7.04017 34.3669 6.64441 33.9179 6.14948C33.5618 5.75696 32.7281 5.5386 32.3024 5.72654C32.1854 5.77819 32.0477 5.83231 31.9964 5.84683C31.9451 5.86123 31.8615 5.88618 31.8102 5.9022C31.5758 5.97569 27.8068 5.95657 27.8068 5.88184C27.8068 5.83554 27.6253 5.6106 27.4033 5.38194C27.0296 4.99687 26.9429 4.96657 26.2241 4.96968L25.4484 4.97303L25.4483 4.32751C25.4482 3.82401 25.5264 3.56457 25.8036 3.14821C26.2261 2.51362 26.3295 2.04922 26.174 1.48564C26.0474 1.0272 25.556 0.384293 25.1773 0.181701C24.8481 0.00542581 23.7338 -0.0689358 23.6423 0.079036ZM23.4625 1.17157C22.9293 1.72088 22.8642 1.99646 23.1411 2.53187C23.509 3.24355 24.5329 3.36893 25.1605 2.77927C25.4045 2.55012 25.4531 2.39271 25.4309 1.90535C25.4128 1.50922 25.3491 1.31098 25.2397 1.31098C25.1496 1.31098 25.0758 1.22383 25.0758 1.11745C25.0758 1.01106 25.0246 0.955446 24.9622 0.994053C24.8997 1.03266 24.83 1.00932 24.807 0.942164C24.7842 0.875005 24.584 0.783891 24.3625 0.739698C24.0054 0.668567 23.9027 0.71785 23.4625 1.17157ZM23.8305 1.1486C23.2025 1.57775 23.1041 2.15474 23.5819 2.60648C24.0978 3.09434 24.6385 3.04542 25.0107 2.4775C25.5248 1.69295 24.584 0.633682 23.8305 1.1486ZM7.32411 17.9492C7.32411 26.0897 7.35675 28.2656 7.47928 28.2991C7.56468 28.3225 8.47995 28.5167 9.51327 28.7307C12.4304 29.3347 14.6763 30.1583 17.06 31.4978C17.8704 31.9533 17.3805 31.883 16.0928 31.3592C13.3115 30.2274 10.3342 29.535 7.22827 29.2975C6.59529 29.2491 6.05492 29.1732 6.02762 29.1291C6.0003 29.0849 5.91353 28.5754 5.83483 27.997C5.27547 23.8896 4.07357 18.519 2.99469 15.3075L2.37959 13.4764H4.10708H5.83446V12.6075V11.7385H2.91723C1.31275 11.7385 0 11.7696 0 11.8077C0 11.8456 0.221584 12.5421 0.492576 13.3553C1.98359 17.8314 3.54065 24.2204 4.22799 28.6833C4.31216 29.2295 4.44387 29.9836 4.52059 30.3591L4.66024 31.0419L6.45763 31.1201C8.54065 31.2108 10.0356 31.39 11.6068 31.7373C15.9027 32.6867 19.4037 34.2017 23.1007 36.7111C23.6873 37.1092 24.1969 37.435 24.2331 37.435C24.2694 37.435 25.0046 36.9637 25.867 36.3879C27.6521 35.1958 30.51 33.7252 32.3378 33.0585C35.684 31.8377 38.5433 31.2614 41.9493 31.1208L43.8642 31.0419L44.2587 28.6833C45.1809 23.1691 46.541 17.6343 48.1144 12.9922C48.2856 12.4869 48.3979 12.0009 48.3639 11.9124C48.3155 11.7861 47.6941 11.7568 45.4717 11.776L42.6412 11.8006V12.6075V13.4144L44.3481 13.4489C45.2869 13.4679 46.055 13.5237 46.0548 13.573C46.0548 13.6223 45.9432 13.9564 45.8067 14.3155C45.1716 15.9865 44.2123 19.495 43.6434 22.2281C43.241 24.1607 42.5791 28.1198 42.5791 28.594C42.5791 28.7971 42.5094 29.0186 42.424 29.0863C42.3387 29.154 41.766 29.2464 41.1515 29.2914C39.4695 29.4149 37.1018 29.8371 35.5033 30.2987C33.7748 30.7977 31.9492 31.4514 31.7437 31.6449C31.583 31.796 31.1585 31.904 31.1585 31.7937C31.1585 31.5111 33.8682 30.1873 35.6274 29.6103C36.7966 29.2269 39.7036 28.5135 40.7791 28.3461C41.0246 28.308 41.0282 28.1878 41.0895 18.0678C41.1236 12.436 41.137 7.7907 41.1191 7.74477C41.1014 7.69884 40.1804 8.09608 39.0726 8.62726L37.0585 9.5933L37.0181 10.4176C36.996 10.871 37.007 11.242 37.0424 11.242C37.0779 11.242 37.6957 10.9663 38.4154 10.6294C39.1351 10.2924 39.7293 10.0551 39.7358 10.1018C39.7423 10.1486 39.7433 13.9827 39.738 18.6219C39.7304 25.2993 39.6957 27.0746 39.571 27.1409C39.4845 27.187 38.9502 27.2909 38.3839 27.372C34.6544 27.9052 30.1941 29.9877 26.0346 33.1379C25.2128 33.7602 24.4701 34.3221 24.3839 34.3864C24.2766 34.4667 24.0977 34.3986 23.8136 34.1692C19.2859 30.5113 14.4389 28.0972 10.2011 27.3893C9.42786 27.2602 8.75752 27.1168 8.71146 27.0706C8.64617 27.0053 8.57839 10.0008 8.64344 10.0006C8.70662 10.0005 9.71251 10.4511 10.449 10.8096C10.9377 11.0474 11.3869 11.242 11.4471 11.242C11.5073 11.242 11.5399 10.8929 11.5197 10.4661L11.4827 9.69025L9.49651 8.67518C8.4041 8.11693 7.46848 7.65601 7.41721 7.65105C7.36594 7.64608 7.32411 12.2803 7.32411 17.9492ZM15.5172 8.50809C15.1767 8.56172 15.1319 8.59623 15.3101 8.66786C15.6108 8.78864 16.0358 8.78069 16.2415 8.65035C16.478 8.50052 16.0724 8.42082 15.5172 8.50809ZM35.5197 16.3103C35.2761 16.472 34.7911 16.5051 32.6939 16.5038C30.9663 16.5027 30.1171 16.4571 30.0206 16.3607C29.9268 16.2668 29.8054 16.2585 29.6606 16.3359C29.5405 16.4003 29.1884 16.4626 28.8783 16.4742C28.3129 16.4956 27.9948 16.7652 28.3668 16.908C28.4677 16.9466 28.5196 17.0279 28.4821 17.0883C28.3912 17.2354 29.0706 18.2102 29.5381 18.6036C30.0471 19.0318 31.0768 19.5002 31.9167 19.6855C33.3066 19.9922 35.2477 19.3556 36.3354 18.2365C36.6287 17.9346 36.8688 17.6379 36.8688 17.5771C36.8688 17.5162 36.9635 17.3719 37.0792 17.2562C37.4917 16.8437 37.377 16.6048 36.7233 16.5148C36.3936 16.4695 36.124 16.3878 36.124 16.3332C36.124 16.1326 35.8054 16.1204 35.5197 16.3103ZM6.79702 42.0005C5.69964 42.4763 5.26889 43.5016 5.72385 44.555C5.94544 45.0679 6.48171 45.5018 6.89583 45.503C7.03586 45.5035 7.20456 45.5581 7.27085 45.6244C7.33727 45.6908 7.51453 45.7638 7.66499 45.7868C7.81532 45.8098 7.97707 45.8672 8.02436 45.9145C8.07166 45.9617 8.20027 46.0004 8.31025 46.0004C8.51223 46.0004 8.79315 46.2678 9.04279 46.6975C9.11802 46.8271 9.18033 46.86 9.18244 46.7713C9.18443 46.6832 9.06811 46.4514 8.92374 46.2562C8.66466 45.9057 8.34067 45.7316 7.14969 45.3024C6.81477 45.1818 6.3819 44.9494 6.18763 44.7859C5.89057 44.536 5.83446 44.3948 5.83446 43.8982C5.83446 42.6239 6.54986 42.0357 8.10617 42.0308C9.26748 42.027 10.1682 42.5255 10.1765 43.1763C10.181 43.5308 9.21435 43.4704 8.68962 43.0832C8.21876 42.7359 7.85504 42.6916 7.5149 42.9403C7.30846 43.0913 7.32572 43.1021 7.68746 43.049C8.15992 42.9796 8.64369 43.2044 8.72959 43.5331C8.78235 43.7349 8.91555 43.766 9.73013 43.766H10.6696L10.5565 43.4684C10.4943 43.3047 10.4632 43.151 10.4872 43.1269C10.5115 43.1027 10.3797 42.8596 10.1947 42.5865C9.61096 41.7258 8.05118 41.4568 6.79702 42.0005ZM11.4583 42.0159C11.4781 42.1458 11.5566 42.3273 11.6327 42.4193C11.7088 42.5114 12.0544 43.1664 12.4007 43.875C12.747 44.5834 13.094 45.2398 13.1717 45.3336C13.2494 45.4272 13.2697 45.5039 13.2165 45.5039C13.1635 45.5039 13.2213 45.6156 13.3448 45.7522C13.4683 45.8887 13.5316 46.0004 13.4853 46.0004C13.439 46.0004 13.4904 46.1367 13.5995 46.3032C13.7519 46.5358 13.7886 46.8525 13.7575 47.6691L13.7172 48.7321H14.5241H15.331L15.2906 47.6691C15.2596 46.8525 15.2962 46.5358 15.4486 46.3032C15.5578 46.1367 15.6092 46.0004 15.5629 46.0004C15.5166 46.0004 15.5799 45.8887 15.7034 45.7522C15.8269 45.6156 15.8828 45.5039 15.8275 45.5039C15.7723 45.5039 15.8281 45.3922 15.9517 45.2556C16.0752 45.1191 16.131 45.0073 16.0758 45.0073C16.0205 45.0073 16.0637 44.9095 16.172 44.79C16.2801 44.6704 16.628 44.0288 16.945 43.3641C17.2619 42.6996 17.5731 42.1238 17.6364 42.0846C17.951 41.8901 17.664 41.7798 16.8436 41.7798H15.9355L15.7136 42.2453C15.5915 42.5014 15.4946 42.7387 15.4983 42.7729C15.502 42.807 15.4227 42.9607 15.322 43.1142C15.2214 43.2678 15.1751 43.3936 15.2191 43.3936C15.2632 43.3936 15.2345 43.4716 15.1553 43.5671C15.0761 43.6626 14.9902 43.8441 14.9645 43.9705C14.9388 44.097 14.88 44.3122 14.8336 44.4487C14.765 44.6506 14.7967 44.6389 15.0029 44.3867C15.1423 44.216 15.2915 43.9375 15.3344 43.768C15.4869 43.1649 15.9981 42.1847 16.2007 42.107C16.4792 42.0001 16.7872 42.0107 16.9811 42.1337C17.1781 42.2587 16.7978 43.1846 15.7366 45.163C15.0463 46.4501 15.0206 46.5316 15.0206 47.4325C15.0206 48.456 14.9541 48.5485 14.3379 48.3805C13.9835 48.2839 13.9652 48.2466 13.9593 47.6053C13.9502 46.6126 13.8537 46.3258 12.8405 44.2796C12.3327 43.2539 11.9172 42.3568 11.9172 42.2859C11.9172 42.1363 12.4239 41.9867 12.7227 42.048C12.9712 42.0992 13.1573 42.4187 13.6693 43.6729C13.8853 44.2021 14.116 44.6349 14.1822 44.6349C14.2482 44.6349 14.2636 44.5371 14.2163 44.4177C14.169 44.2983 14.1103 44.1025 14.086 43.9827C14.0615 43.863 13.9981 43.6955 13.945 43.6103C13.8918 43.5253 13.838 43.3998 13.8253 43.3315C13.8126 43.2632 13.6582 42.8862 13.4821 42.4936L13.1617 41.7798H12.292C11.5072 41.7798 11.4257 41.8029 11.4583 42.0159ZM18.4344 45.2556V48.7315H19.2413H20.0482L20.0265 47.2108C19.9999 45.3587 20.0066 45.4421 19.893 45.555C19.8417 45.6059 19.772 46.2717 19.7378 47.0344L19.6758 48.4211H19.2413H18.8068L18.7735 45.3264C18.7503 43.1619 18.7817 42.2061 18.8779 42.1466C18.9909 42.0768 19.6307 42.0712 20.0141 42.1368C20.0636 42.1452 20.2235 42.4176 20.3693 42.7418C21.066 44.2904 21.2099 44.627 21.4877 45.3594C21.6524 45.7936 21.8973 46.2059 22.0344 46.2797C22.2567 46.3995 22.2649 46.392 22.1123 46.207C22.0186 46.0934 21.978 46.0004 22.0221 46.0004C22.0662 46.0004 22.0107 45.8608 21.8988 45.6901C21.787 45.5194 21.7367 45.3798 21.787 45.3798C21.8374 45.3798 21.8222 45.31 21.7533 45.2246C21.6427 45.0877 20.8108 43.1813 20.7916 43.0211C20.7876 42.987 20.707 42.8194 20.6125 42.6487C20.518 42.478 20.4583 42.3384 20.4799 42.3384C20.5014 42.3384 20.4792 42.2126 20.4304 42.0591C20.3486 41.8014 20.2682 41.7798 19.3882 41.7798H18.4344V45.2556ZM24.2095 42.023C24.1349 42.1624 24.1102 42.2763 24.1547 42.2763C24.199 42.2763 24.1439 42.416 24.032 42.5867C23.9202 42.7574 23.859 42.897 23.8961 42.897C23.9332 42.897 23.8567 43.1065 23.7261 43.3625C23.5954 43.6186 23.4771 43.8839 23.4631 43.9522C23.4489 44.0204 23.3752 44.188 23.299 44.3246C23.2228 44.4611 23.1565 44.6008 23.1516 44.6349C23.1468 44.6691 23.073 44.8227 22.9876 44.9763C22.9024 45.1299 22.8597 45.2556 22.8927 45.2556C22.9257 45.2556 22.8702 45.4652 22.7693 45.7211L22.5858 46.1866L22.8722 45.8468C23.0297 45.6598 23.2357 45.2408 23.3299 44.9157C23.4241 44.5906 23.7448 43.8136 24.0426 43.1891L24.5838 42.0536L25.2643 42.0455L25.9447 42.0374V45.1983C25.9447 46.9367 25.9029 48.3636 25.8516 48.3691C25.349 48.4236 25.0492 48.4165 25.0077 48.3494C24.9803 48.3049 24.934 47.6707 24.9048 46.9398C24.8507 45.5854 24.7051 44.9653 24.7012 46.0728C24.7 46.4086 24.676 47.1465 24.6479 47.7128L24.5967 48.7424L25.4024 48.7059L26.2079 48.6694L26.2127 45.2556L26.2174 41.8418L25.2813 41.8057C24.4456 41.7734 24.3306 41.7968 24.2095 42.023ZM29.2357 42.0591C29.1864 42.2126 29.1373 42.3942 29.1265 42.4625C29.083 42.7365 28.7599 43.5893 28.6443 43.7349C28.5767 43.8203 28.5579 43.8901 28.6029 43.8901C28.6477 43.8901 28.6227 44.0054 28.5473 44.1464C28.4718 44.2875 28.3915 44.4969 28.3686 44.612C28.2889 45.0137 27.7729 46.4362 27.651 46.5901C27.5833 46.6755 27.5579 46.7453 27.5943 46.7453C27.6501 46.7453 27.3228 47.7186 26.9974 48.5199C26.9143 48.7244 26.983 48.7399 27.8186 48.7061L28.7304 48.6694L28.8876 48.1108L29.045 47.5522L30.0708 47.5288C31.7083 47.4915 31.618 47.5025 31.4068 47.366C31.1308 47.1877 29.3798 47.2118 29.1579 47.397C29.0556 47.4824 28.8186 47.7617 28.6313 48.0177C28.3696 48.3753 28.2049 48.4832 27.9207 48.4832C27.6985 48.4832 27.5208 48.4051 27.4757 48.2878C27.3984 48.0861 27.5734 47.4258 27.9341 46.5591C28.0477 46.286 28.209 45.8391 28.2923 45.566C28.3757 45.2929 28.4937 44.9577 28.5546 44.8211C28.6155 44.6846 28.8109 44.126 28.9889 43.5798C29.472 42.0971 29.5348 42.028 30.4015 42.028C31.0809 42.028 31.1366 42.0503 31.2551 42.3694C31.439 42.8649 31.8671 44.038 32.1383 44.7901C32.4346 45.6115 33.2688 48.2693 33.2688 48.3916C33.2688 48.442 33.0461 48.4832 32.7739 48.4832C32.3291 48.4832 32.2613 48.4407 32.1038 48.0639C32.0075 47.8332 31.8576 47.6006 31.7707 47.5469C31.6535 47.4746 31.6383 47.5107 31.7114 47.687C31.7655 47.8177 31.8469 48.0922 31.8924 48.297C31.9736 48.6642 31.9874 48.6699 32.8701 48.7059C33.3625 48.7259 33.7654 48.7092 33.7654 48.6687C33.7654 48.6282 33.6801 48.4302 33.5759 48.2287C33.4718 48.0274 33.4174 47.8625 33.455 47.8625C33.4926 47.8625 33.4368 47.6949 33.3309 47.4901C33.225 47.2853 33.1691 47.1177 33.2068 47.1177C33.2444 47.1177 33.1885 46.9501 33.0826 46.7453C32.9767 46.5404 32.9262 46.3729 32.9705 46.3729C33.0147 46.3729 32.9915 46.3013 32.919 46.2138C32.8464 46.1263 32.7577 45.8938 32.7221 45.6971C32.6864 45.5002 32.5993 45.2813 32.5286 45.2106C32.4577 45.1397 32.3999 44.9627 32.3999 44.817C32.3999 44.6713 32.3611 44.5135 32.314 44.4662C32.2667 44.4189 32.2097 44.2604 32.1873 44.1139C32.165 43.9674 32.085 43.7733 32.0098 43.6825C31.9345 43.5919 31.9145 43.5177 31.9654 43.5177C32.0163 43.5177 31.9984 43.4462 31.9259 43.3587C31.8533 43.2712 31.7669 43.0617 31.7337 42.8932C31.7007 42.7246 31.6081 42.4052 31.528 42.1832L31.3824 41.7798H30.3539C29.3966 41.7798 29.3191 41.7991 29.2357 42.0591ZM34.3861 45.2556V48.7315H35.2695C36.1251 48.7315 36.1505 48.7226 36.078 48.4522C36.037 48.2986 35.9986 47.5863 35.9928 46.8694C35.9867 46.0958 35.9426 45.6669 35.8845 45.8142C35.8306 45.9508 35.8125 46.5499 35.844 47.1455C35.9008 48.2154 35.8976 48.2303 35.5783 48.3758C35.3351 48.4865 35.1786 48.4882 34.9462 48.3823L34.6373 48.2416L34.6436 45.2529L34.6498 42.2643L34.9606 42.1461C35.4397 41.964 35.9415 42.0057 36.1539 42.2453C36.2598 42.3647 36.4317 42.7139 36.536 43.0211C36.7099 43.5335 36.9084 44.0063 37.6438 45.6591C37.788 45.9833 37.958 46.2487 38.0214 46.2487C38.0849 46.2487 38.098 46.1509 38.0507 46.0315C38.0034 45.9121 37.9456 45.7206 37.9222 45.6062C37.8988 45.4918 37.7874 45.2574 37.6746 45.085C37.5617 44.9129 37.4573 44.6992 37.4424 44.6103C37.4277 44.5215 37.3464 44.323 37.2619 44.1694C37.1774 44.0159 37.1359 43.8901 37.1697 43.8901C37.2034 43.8901 37.1003 43.6247 36.9406 43.3004C36.7808 42.9762 36.5833 42.5014 36.5016 42.2453L36.353 41.7798H35.3695H34.3861V45.2556ZM40.2569 42.0591C40.0576 42.4883 39.8053 43.0761 39.7905 43.1453C39.7832 43.1794 39.7 43.347 39.6055 43.5177C39.5111 43.6884 39.4468 43.828 39.4628 43.828C39.5026 43.828 39.3694 44.1918 39.0081 45.0694C38.8394 45.4791 38.6492 45.9512 38.5855 46.1186C38.4719 46.4172 38.4745 46.4187 38.7193 46.1972C38.8566 46.0729 39.0618 45.6845 39.1755 45.3341C39.2891 44.9838 39.4311 44.6439 39.491 44.5791C39.5508 44.5141 39.5998 44.375 39.5998 44.2698C39.5998 44.0177 40.4494 42.3029 40.6295 42.1917C40.7066 42.144 40.9837 42.0933 41.2453 42.0791C42.0165 42.037 42.0483 42.1704 42.0323 45.3798C42.0247 46.916 41.9737 48.2427 41.9191 48.328C41.7686 48.5628 41.1175 48.5192 40.9816 48.2653C40.9175 48.1455 40.8591 47.517 40.8518 46.8688C40.8444 46.2205 40.7879 45.5225 40.7264 45.3177C40.6474 45.0555 40.611 45.5056 40.6036 46.8384L40.5929 48.7315H41.3961H42.1991L42.234 45.2555L42.2688 41.7796H41.3277C40.473 41.7798 40.3747 41.8053 40.2569 42.0591ZM7.48362 44.4505C7.6738 44.6178 8.14863 44.8472 8.53879 44.9604C9.67713 45.2905 10.0145 45.4974 10.2436 46.0054C10.6901 46.9956 10.1292 48.0617 9.01399 48.3425C8.27264 48.5292 7.86522 48.5199 7.12213 48.2992C6.39059 48.082 5.92048 47.6392 5.97945 47.2229C6.01495 46.9722 6.08671 46.9336 6.49276 46.9462C6.80521 46.9559 7.05075 47.053 7.21846 47.2331C7.66821 47.7158 8.24012 47.8508 8.62941 47.5662C8.84194 47.4106 8.81251 47.397 8.32614 47.4254C7.81594 47.4552 7.29022 47.1951 7.4079 46.9711C7.49802 46.7996 7.1487 46.712 6.30928 46.6955C5.50016 46.6796 5.45261 46.6937 5.52213 46.9291C5.56272 47.067 5.6197 47.2915 5.64875 47.428C5.70511 47.6934 6.62161 48.5583 6.86666 48.5774C6.9476 48.5837 7.18135 48.6313 7.38617 48.683C7.92133 48.8184 8.94186 48.7711 9.15513 48.601C9.17214 48.5875 9.2393 48.5693 9.3041 48.5608C9.36902 48.5522 9.49192 48.4755 9.5772 48.3901C9.66248 48.3048 9.80114 48.2349 9.88531 48.2349C9.96935 48.2349 10.1677 48.0534 10.326 47.8315C10.6707 47.3482 10.7482 46.2523 10.4751 45.7241C10.323 45.43 9.75795 45.0206 9.46672 44.9936C9.41483 44.9887 9.19088 44.9089 8.96893 44.8162C8.74697 44.7234 8.56548 44.6742 8.56548 44.7066C8.56548 44.739 8.39789 44.6787 8.19307 44.5729C7.98824 44.467 7.81892 44.4236 7.81693 44.4765C7.81482 44.5295 7.75623 44.475 7.68659 44.3556C7.61695 44.2362 7.465 44.1401 7.34893 44.1423C7.18557 44.1453 7.21586 44.2148 7.48362 44.4505ZM29.9316 44.3071C29.7634 44.5097 29.4238 45.5927 29.4219 45.9322C29.4201 46.2565 29.6356 46.0327 29.7148 45.628C29.7482 45.4573 29.8576 45.0523 29.9583 44.728C30.1538 44.097 30.1505 44.0434 29.9316 44.3071ZM30.6797 44.5499C30.7457 44.7674 30.8207 45.0394 30.8463 45.1544C30.8718 45.2695 30.9451 45.465 31.0089 45.5889C31.0727 45.7128 31.1016 45.8789 31.0731 45.958C31.0445 46.0371 31.0883 46.1433 31.1704 46.194C31.3509 46.3056 31.2155 45.0185 31.0266 44.8273C30.9626 44.7625 30.9102 44.6148 30.9102 44.4992C30.9102 44.3837 30.8314 44.2588 30.7351 44.2218C30.5922 44.1671 30.582 44.2278 30.6797 44.5499ZM24.0026 45.4793C23.9297 45.5962 23.6581 46.2222 23.399 46.8703C22.8664 48.2036 22.6721 48.4832 22.2786 48.4832C21.9574 48.4832 21.8248 48.3358 21.608 47.7384C21.5212 47.4994 21.3521 47.0804 21.2321 46.8073C21.1122 46.5342 20.9219 46.0984 20.8093 45.8387C20.6967 45.579 20.5498 45.4004 20.4829 45.4417C20.4093 45.4873 20.4398 45.6367 20.5604 45.8207C20.6699 45.9878 20.7239 46.1246 20.6803 46.1246C20.6367 46.1246 20.6926 46.2642 20.8044 46.4349C20.9163 46.6056 20.9721 46.7453 20.9286 46.7453C20.885 46.7453 20.9409 46.8849 21.0527 47.0556C21.1646 47.2263 21.2197 47.366 21.1754 47.366C21.1309 47.366 21.1644 47.4917 21.2497 47.6453C21.3351 47.7988 21.4089 47.9525 21.4137 47.9866C21.4185 48.0208 21.4884 48.167 21.5689 48.3118C21.6494 48.4564 21.68 48.6099 21.6369 48.6531C21.5938 48.6962 21.8683 48.7315 22.2469 48.7315C22.9062 48.7315 22.9425 48.7143 23.1041 48.328C23.1969 48.1061 23.2755 47.8966 23.2787 47.8625C23.282 47.8284 23.3543 47.6747 23.4397 47.5211C23.525 47.3676 23.5636 47.2418 23.5255 47.2418C23.4874 47.2418 23.5477 47.1022 23.6596 46.9315C23.7714 46.7608 23.8266 46.6211 23.7822 46.6211C23.7378 46.6211 23.7713 46.4954 23.8566 46.3418C23.942 46.1883 24.0165 46.0346 24.0223 46.0004C24.028 45.9663 24.0771 45.8085 24.1311 45.6497C24.2531 45.2915 24.1802 45.1949 24.0026 45.4793ZM36.4333 45.4418C36.4798 45.5784 36.5365 45.7739 36.5593 45.8763C36.5822 45.9787 36.6917 46.2411 36.8028 46.4595C36.9139 46.6779 37.0256 46.9572 37.051 47.0802C37.0765 47.2032 37.1821 47.4715 37.2858 47.6763C37.3894 47.8811 37.5322 48.2023 37.603 48.3901C37.7186 48.697 37.7916 48.7315 38.3251 48.7315C38.8557 48.7315 38.9333 48.6953 39.0585 48.3901C39.2505 47.9216 39.3892 47.5642 39.4077 47.4901C39.4161 47.456 39.5122 47.2325 39.6211 46.9935C39.8003 46.6 39.9396 46.2275 40.1454 45.5905C40.192 45.4464 40.1691 45.3969 40.0811 45.4513C39.939 45.539 39.3516 46.785 39.3516 46.9984C39.3516 47.1939 38.8194 48.2882 38.6758 48.3882C38.2348 48.695 37.845 48.3996 37.4909 47.4901C37.0602 46.3844 36.1623 44.6455 36.4333 45.4418ZM29.8861 46.3385C30.108 46.366 30.471 46.366 30.693 46.3385C30.9149 46.311 30.7333 46.2884 30.2895 46.2884C29.8457 46.2884 29.6641 46.311 29.8861 46.3385ZM19.0817 52.5324C19.0329 52.5812 18.993 53.3659 18.993 54.2763V55.9314H20.4858C21.9638 55.9314 21.9796 55.9283 22.0965 55.6211C22.1984 55.3528 22.2911 55.3107 22.7788 55.3107C23.2604 55.3107 23.3639 55.3563 23.4846 55.6211C23.5985 55.8713 23.7156 55.9314 24.0887 55.9314H24.5515L24.1301 54.7211C23.2693 52.2486 23.3813 52.4375 22.8013 52.4802L22.2904 52.5177L21.9702 53.3866C21.7942 53.8645 21.6429 54.2835 21.6338 54.3176C21.6247 54.3518 21.5576 54.537 21.4845 54.7292C21.4115 54.9213 21.3516 55.1481 21.3516 55.233C21.3516 55.3179 21.2696 55.4958 21.1694 55.6284C20.9913 55.8639 20.987 55.8633 20.9832 55.5971C20.9798 55.3665 20.8988 55.3192 20.4516 55.2868L19.9241 55.2487L19.913 53.8832L19.9021 52.5177L19.5361 52.4808C19.3349 52.4604 19.1304 52.4838 19.0817 52.5324ZM24.8419 53.3556C24.9777 53.8505 25.2009 54.6357 25.3378 55.1003L25.5868 55.945L26.1016 55.9072L26.6164 55.8694L26.8528 54.9084C27.1008 53.9 27.2465 53.7902 27.3816 54.5096C27.426 54.7469 27.5129 54.9722 27.5746 55.0103C27.6362 55.0484 27.6574 55.1269 27.6217 55.1847C27.5859 55.2426 27.6116 55.4343 27.6787 55.6107C27.781 55.8797 27.8785 55.9314 28.2831 55.9314H28.7655L29.2172 54.3451C29.4656 53.4725 29.6688 52.6905 29.6688 52.6072C29.6688 52.5173 29.4954 52.4556 29.2427 52.4556C28.7866 52.4556 28.7302 52.5348 28.624 53.3245C28.5918 53.5635 28.5152 53.9266 28.4539 54.1314C28.3926 54.3363 28.3676 54.7134 28.3984 54.9694C28.4548 55.4359 28.2753 55.616 28.1304 55.2385C28.0174 54.9442 28.043 54.8518 28.1792 55.0625C28.3705 55.3585 28.3321 55.035 28.0172 53.697L27.7397 52.5177L27.2285 52.4802L26.7173 52.4427L26.5592 53.1008C26.4722 53.4628 26.3875 53.8799 26.3711 54.0278C26.3547 54.1755 26.2852 54.3966 26.2168 54.519C26.1116 54.7069 26.0682 54.6557 25.937 54.1882C25.8516 53.8839 25.7715 53.5511 25.759 53.4487C25.7465 53.3463 25.6949 53.081 25.6444 52.859C25.5603 52.4895 25.5123 52.4556 25.0738 52.4556H24.595L24.8419 53.3556ZM27.1373 52.9002C27.0176 53.2121 27.0499 53.8211 27.1861 53.8211C27.2544 53.8211 27.3102 53.5697 27.3102 53.2625C27.3102 52.6749 27.2623 52.5745 27.1373 52.9002ZM22.6744 53.7857C22.633 53.9759 22.5632 54.2572 22.5194 54.4107C22.4494 54.6567 22.4851 54.6901 22.8182 54.6901C23.1875 54.6901 23.1935 54.6805 23.0728 54.2866C23.0048 54.0647 22.9359 53.815 22.9195 53.7316C22.8594 53.4247 22.7478 53.4494 22.6744 53.7857Z" fill="#0B1F3D"/>
</svg>
