<?xml version="1.0" encoding="UTF-8" standalone="no"?>
<!-- Created with Inkscape (http://www.inkscape.org/) -->

<svg
   width="210mm"
   height="297mm"
   viewBox="0 0 210 297"
   version="1.1"
   id="svg1"
   xml:space="preserve"
   inkscape:version="1.3.2 (091e20e, 2023-11-25, custom)"
   sodipodi:docname="SYMAMLAW.svg"
   xmlns:inkscape="http://www.inkscape.org/namespaces/inkscape"
   xmlns:sodipodi="http://sodipodi.sourceforge.net/DTD/sodipodi-0.dtd"
   xmlns="http://www.w3.org/2000/svg"
   xmlns:svg="http://www.w3.org/2000/svg"><sodipodi:namedview
     id="namedview1"
     pagecolor="#ffffff"
     bordercolor="#999999"
     borderopacity="1"
     inkscape:showpageshadow="2"
     inkscape:pageopacity="0"
     inkscape:pagecheckerboard="0"
     inkscape:deskcolor="#d1d1d1"
     inkscape:document-units="mm"
     inkscape:zoom="0.69219276"
     inkscape:cx="396.56583"
     inkscape:cy="561.25984"
     inkscape:window-width="1920"
     inkscape:window-height="991"
     inkscape:window-x="-9"
     inkscape:window-y="-9"
     inkscape:window-maximized="1"
     inkscape:current-layer="layer1" /><defs
     id="defs1" /><g
     inkscape:label="Layer 1"
     inkscape:groupmode="layer"
     id="layer1"><path
       style="fill:#144272;fill-opacity:1;stroke-width:2.22973"
       d="m 13.386399,193.88232 c -1.176348,-0.30741 -1.250326,-0.7132 -0.493091,-2.7049 0.501531,-1.31913 0.774345,-1.39904 3.892938,-1.14041 2.957438,0.24524 3.32931,0.15652 3.14787,-0.75203 -0.124352,-0.62265 -1.444915,-1.49176 -3.338512,-2.1972 -2.430119,-0.90529 -3.344142,-1.61031 -4.07519,-3.14335 -0.836155,-1.75341 -0.846278,-2.22957 -0.08976,-4.22265 0.742436,-1.95604 1.202884,-2.33355 3.56242,-2.92079 2.45621,-0.61131 7.769715,-0.20737 8.633334,0.65616 0.151466,0.1514 -0.04131,1.03997 -0.428388,1.97443 -0.687938,1.66084 -0.76306,1.6855 -3.339272,1.09596 -1.934956,-0.44278 -2.819659,-0.41892 -3.328311,0.0896 -0.885468,0.88547 -0.195994,1.53091 2.583296,2.41829 3.004765,0.95937 5.220978,3.16162 5.211136,5.17828 -0.02208,4.54273 -1.983431,6.11674 -7.484524,6.00672 -1.881831,-0.0377 -3.886098,-0.18974 -4.453928,-0.33824 z m 22.565624,-1.64467 c 0,-1.88231 -0.525426,-3.4959 -4.086546,-12.54994 -1.218205,-3.09723 -1.218205,-3.09723 1.340765,-3.09723 2.558969,0 2.558969,0 3.630707,3.5397 0.589455,1.94682 1.294068,3.53971 1.565805,3.53971 0.271738,0 0.936927,-1.59289 1.478195,-3.53971 0.984127,-3.5397 0.984127,-3.5397 3.542183,-3.5397 1.406931,0 2.558055,0.21963 2.558055,0.4882 0,0.26852 -1.061911,2.93658 -2.359803,5.92902 -1.702515,3.92534 -2.359803,6.25418 -2.359803,8.36104 0,2.92026 0,2.92026 -2.654778,2.92026 -2.637415,0 -2.65478,-0.0134 -2.65478,-2.05135 z m 16.518625,-6.79791 c 0,-8.84926 0,-8.84926 2.590023,-8.84926 2.590025,0 2.590025,0 4.572121,4.12951 1.090153,2.27123 2.177867,4.12958 2.417142,4.12965 0.239275,9e-5 1.378315,-1.87294 2.531203,-4.16227 2.096151,-4.1624 2.096151,-4.1624 4.57954,-3.98217 2.483378,0.18016 2.483378,0.18016 2.646631,8.88201 0.163263,8.70179 0.163263,8.70179 -2.507285,8.70179 -2.670548,0 -2.670548,0 -2.670548,-4.54261 0,-4.7682 -0.248264,-4.92097 -2.205318,-1.35691 -1.698832,3.0938 -3.154546,2.97357 -5.041136,-0.41631 -1.574111,-2.8284 -1.574111,-2.8284 -1.588464,1.74371 -0.01427,4.57212 -0.01427,4.57212 -2.66913,4.57212 -2.654779,0 -2.654779,0 -2.654779,-8.84926 z m 26.605655,4.86709 c 0.634964,-2.1902 1.713579,-6.18368 2.396911,-8.87441 1.242432,-4.89227 1.242432,-4.89227 5.122442,-4.71963 3.880009,0.17259 3.880009,0.17259 6.397101,8.43198 1.384395,4.54261 2.523215,8.45841 2.530689,8.70177 0.0063,0.24334 -1.296138,0.44246 -2.896947,0.44246 -2.736615,0 -2.921732,-0.097 -3.097242,-1.62238 -0.172808,-1.50183 -0.383884,-1.62236 -2.841461,-1.62236 -2.457557,0 -2.668643,0.12063 -2.841452,1.62236 -0.1751,1.52187 -0.364415,1.62238 -3.055593,1.62238 -2.868927,0 -2.868927,0 -1.714448,-3.98217 z m 9.190614,-3.83468 c -0.175258,-0.73006 -0.499062,-2.32294 -0.719568,-3.53971 -0.220496,-1.21676 -0.607301,-2.21232 -0.859553,-2.21232 -0.252242,0 -0.639047,0.99556 -0.859543,2.21232 -0.220496,1.21677 -0.54431,2.80965 -0.719558,3.53971 -0.280272,1.16749 -0.09012,1.32738 1.579101,1.32738 1.669168,0 1.859383,-0.15987 1.579121,-1.32738 z m 13.710463,1.32738 c -0.027,-3.5692 -0.0714,-7.485 -0.0984,-8.70176 -0.0491,-2.21232 -0.0491,-2.21232 2.55646,-2.21232 2.6056,0 2.6056,0 4.67045,3.98056 1.13565,2.18929 2.21263,3.98129 2.39331,3.98216 0.18061,8.9e-4 1.2275,-1.85673 2.32628,-4.12805 1.9978,-4.12964 1.9978,-4.12964 4.53861,-4.12964 2.54081,0 2.54081,0 2.54081,8.84926 0,8.84926 0,8.84926 -2.65477,8.84926 -2.65479,0 -2.65479,0 -2.68226,-4.57212 -0.0274,-4.57211 -0.0274,-4.57211 -1.48619,-1.76985 -1.85458,3.56276 -3.31156,3.70462 -4.95539,0.48249 -1.92163,-3.76675 -2.38022,-3.497 -2.38022,1.40004 0,4.45944 0,4.45944 -2.35979,4.45944 -2.3598,0 -2.3598,0 -2.40896,-6.48947 z m 36.03616,-2.35979 c 0,-8.84926 0,-8.84926 2.65476,-8.84926 2.6548,0 2.6548,0 2.6548,7.07941 0,7.0794 0,7.0794 2.94976,7.0794 2.88418,0 2.94973,0.0393 2.94973,1.76985 0,1.76986 0,1.76986 -5.60452,1.76986 -5.60453,0 -5.60453,0 -5.60453,-8.84926 z m 16.51861,8.68892 c 0,-0.12375 0.77268,-2.99217 1.71703,-6.3743 0.94437,-3.38211 2.0197,-7.28941 2.38961,-8.68288 0.6726,-2.53356 0.6726,-2.53356 4.60111,-2.35979 4.47577,0.198 3.70553,-1.04207 7.16186,11.53031 1.66241,6.047 1.66241,6.047 -1.15721,6.047 -2.66411,0 -2.84144,-0.0994 -3.2152,-1.80115 -0.37188,-1.69307 -0.54143,-1.79042 -2.82566,-1.62236 -2.0393,0.15006 -2.48506,0.41593 -2.77225,1.65365 -0.29708,1.28023 -0.70893,1.49861 -3.12074,1.6547 -1.52819,0.099 -2.77855,0.0785 -2.77855,-0.0453 z m 10.39902,-7.36154 c -0.16477,-0.56782 -0.62383,-2.22706 -1.02009,-3.6872 -0.7205,-2.65476 -0.7205,-2.65476 -1.46466,-0.29497 -1.28258,4.06715 -1.09841,5.01458 0.97475,5.01458 1.4443,0 1.74913,-0.20848 1.51,-1.03241 z m 13.53753,-0.29524 c -0.94948,-4.29911 -1.84325,-8.28117 -1.98616,-8.84899 -0.21873,-0.86904 0.16121,-1.03241 2.40067,-1.03241 3.07985,0 3.17754,0.14693 3.73912,5.62852 0.2165,2.11412 0.60976,3.9773 0.87371,4.14043 0.26393,0.16322 0.81306,-1.31641 1.22025,-3.28785 0.74036,-3.58446 0.74036,-3.58446 3.67211,-3.41042 2.93177,0.17414 2.93177,0.17414 3.63072,3.28915 0.38443,1.71333 0.84099,3.25715 1.01458,3.43076 0.17346,0.17346 0.62516,-1.62645 1.00351,-4.00006 0.95664,-6.00171 0.81524,-5.79053 3.87758,-5.79053 2.30824,0 2.66696,0.15407 2.40415,1.03241 -0.16991,0.56782 -0.99585,4.08541 -1.83544,7.81685 -0.83958,3.73144 -1.66553,7.24902 -1.83542,7.81685 -0.23884,0.7982 -0.95565,1.03241 -3.1597,1.03241 -2.85078,0 -2.85078,0 -3.83711,-4.43338 -0.54247,-2.43835 -1.18795,-4.30877 -1.4344,-4.15645 -0.24646,0.15229 -0.80099,2.14733 -1.23236,4.43338 -0.78426,4.15645 -0.78426,4.15645 -3.78687,4.15618 -3.00261,-2.4e-4 -3.00261,-2.4e-4 -4.72894,-7.81685 z M 99.193148,163.538 c -11.417715,-0.93967 -18.798266,-3.80011 -24.400071,-9.45657 -1.837246,-1.85517 -3.498386,-3.85466 -3.691438,-4.44333 -0.193051,-0.58867 -1.875586,-1.88381 -3.738967,-2.8781 -6.427744,-3.42983 -9.63987,-10.54228 -8.12374,-17.98804 0.749112,-3.6789 3.033498,-7.40294 5.580044,-9.09667 1.033509,-0.6874 2.167421,-2.25912 2.766494,-3.83468 1.407925,-3.70282 7.220649,-9.37574 11.845818,-11.56093 3.657577,-1.72804 3.657577,-1.72804 3.687188,-4.580452 0.02962,-2.852412 0.02962,-2.852412 -2.743827,-0.411119 -1.525394,1.342701 -4.37928,3.475201 -6.341972,4.738851 -3.614401,2.32709 -4.119136,2.73065 -5.541505,4.43058 -0.558609,0.66762 -1.300639,0.83635 -2.509954,0.57074 -1.378377,-0.30273 -2.196507,0.002 -4.149477,1.54956 -2.329641,1.84511 -2.46685,1.87979 -3.242062,0.81962 -0.445209,-0.60885 -0.809472,-1.83643 -0.809472,-2.72797 0,-1.48218 0.23985,-1.65647 2.802267,-2.03599 1.808982,-0.26794 3.267664,-0.91334 4.115253,-1.82085 0.976978,-1.04603 1.688906,-1.31146 2.781902,-1.03713 1.128992,0.28337 2.395132,-0.25383 5.47145,-2.32142 3.508968,-2.358373 8.427158,-6.53654 8.427158,-7.15915 0,-0.11996 -2.668119,-0.813764 -5.929168,-1.541862 -6.216003,-1.387876 -8.369935,-2.380042 -7.344723,-3.383245 0.324474,-0.317514 3.908427,-1.367631 7.964343,-2.333619 4.055906,-0.965966 12.622023,-3.007846 19.035808,-4.53749 11.661443,-2.781194 11.661443,-2.781194 24.482973,0.261347 7.05183,1.673395 15.21083,3.584145 18.13109,4.246109 6.64591,1.506498 7.96433,2.023172 7.96433,3.121094 0,0.904582 -1.21137,1.322679 -8.55429,2.952482 -2.27129,0.504121 -4.72698,1.054599 -5.45703,1.2233 -1.2177,0.281371 -1.32551,0.634851 -1.30456,4.277637 0.0227,3.970937 0.0227,3.970937 3.68718,5.733337 4.53123,2.17934 10.57731,8.03075 11.64701,11.27199 0.45462,1.3775 1.86203,3.28424 3.53326,4.78684 3.92367,3.52771 5.48559,7.38622 5.185,12.80875 -0.13244,2.38798 -0.69113,5.12291 -1.30457,6.38527 -1.41695,2.91592 -5.03044,6.47202 -7.88393,7.75878 -1.26244,0.56927 -2.74419,1.79488 -3.29278,2.72357 -2.80059,4.74102 -8.53235,8.97866 -15.16779,11.21399 -6.31294,2.12668 -17.83189,3.07685 -27.577242,2.27477 z m 14.835522,-8.57545 c 4.57899,-0.43239 4.44195,-0.0511 2.46362,-6.8563 -0.89486,-3.07815 -0.89486,-3.07815 -9.69299,-3.07815 -8.798152,0 -8.798152,0 -10.030202,4.4956 -0.6776,2.47257 -1.232035,4.64674 -1.232035,4.83147 0,0.81075 12.121637,1.20889 18.491607,0.60738 z m -19.711661,-6.32582 c 0.692763,-2.55789 1.184289,-4.68171 1.092316,-4.71962 -9.361863,-3.85771 -13.038951,-11.99667 -8.42676,-18.65204 2.734511,-3.94592 3.629347,-4.12999 20.078085,-4.12999 13.79673,0 14.69908,0.0673 16.59665,1.2402 3.20816,1.98275 4.91703,4.99053 4.91703,8.65445 0,5.12739 -2.90137,9.34301 -8.15423,11.84792 -1.83583,0.87546 -1.9664,1.1146 -1.65172,3.0254 0.18797,1.14113 0.71336,3.40219 1.16767,5.02455 0.9293,3.31871 0.92342,3.31742 6.19688,1.34437 4.46482,-1.67049 8.98494,-6.19465 10.61169,-10.62112 1.52857,-4.15935 2.67579,-13.10325 2.29582,-17.89862 -0.19421,-2.45152 -0.75614,-4.32611 -1.78548,-5.95671 -1.69734,-2.68877 -6.79923,-6.32117 -10.78666,-7.67984 -2.53442,-0.86356 -2.88453,-0.83914 -6.91869,0.48278 -3.67376,1.20384 -5.40762,1.39238 -12.80347,1.39238 -7.421802,0 -9.123102,-0.1864 -12.850895,-1.40763 -4.296602,-1.40761 -4.296602,-1.40761 -8.13084,0.22186 -4.693989,1.99499 -9.360597,6.05206 -10.326002,8.97727 -0.478076,1.44857 -0.609613,4.66164 -0.40374,9.86243 0.449345,11.35149 2.609641,16.52004 8.601003,20.5781 2.71564,1.83933 8.444565,4.01819 9.039232,3.43781 0.210395,-0.20536 0.949359,-2.46618 1.642111,-5.02404 z m 4.251939,-12.70209 c 1.864682,-1.51172 1.25749,-1.92217 -2.5242,-1.70625 -3.162459,0.18061 -3.162459,0.18061 -1.835077,1.50797 1.622371,1.62238 2.550607,1.66459 4.359277,0.19823 z m 19.254982,0.2107 c 2.04655,-1.43345 1.56423,-2.03137 -1.63856,-2.03137 -3.2044,0 -3.45313,0.23579 -1.97341,1.87087 1.19313,1.31839 1.91318,1.35038 3.61197,0.16055 z m -17.56725,-4.98113 c 0,-2.3598 0,-2.3598 -3.834702,-2.3598 -3.834667,0 -3.834667,0 -3.834667,2.3598 0,2.35979 0,2.35979 3.834667,2.35979 3.834702,0 3.834702,0 3.834702,-2.35979 z m 19.46839,0 c 0,-2.3598 0,-2.3598 -3.84407,-2.3598 -3.84403,0 -3.84403,0 -3.73182,1.91733 0.0618,1.05455 0.21428,2.11646 0.33917,2.35982 0.12486,0.24335 1.80412,0.44244 3.73182,0.44244 3.5049,0 3.5049,0 3.5049,-2.35979 z m -20.058352,-3.44826 c 0,-1.02031 -2.3072,-2.53941 -3.57092,-2.35117 -0.719653,0.10725 -1.703092,0.79223 -2.185449,1.52228 -0.874196,1.32314 -0.866398,1.32738 2.439679,1.32738 1.82419,0 3.31669,-0.22432 3.31669,-0.49849 z m 19.468382,-0.0493 c 0,-1.02281 -1.84829,-2.40195 -3.219,-2.40195 -0.80489,0 -1.7614,0.60514 -2.33127,1.47486 -0.96637,1.47488 -0.96637,1.47488 2.29197,1.47488 1.79206,0 3.2583,-0.24649 3.2583,-0.54779 z"
       id="path1" /></g></svg>
